<svg width="2588" height="354" viewBox="0 0 2588 354" fill="none" xmlns="http://www.w3.org/2000/svg">
<path d="M1067.58 218.108V159.315C1067.58 110.76 1106.95 71.3992 1155.53 71.3992C1204.1 71.3992 1243.14 110.375 1243.14 158.984V218.163H1067.58V218.108ZM1155.36 10.0181C1072.41 10.0181 1005.2 77.1795 1005.15 160.085V343.954H1067.64V280.591H1243.2V343.954H1305.69V160.085C1305.63 77.1795 1238.37 10.0181 1155.47 10.0181H1155.36Z" fill="#288CF4"/>
<path d="M800.457 60.9495C834.484 60.9495 864.969 75.938 885.828 99.7205L686.537 167.307C690.964 107.851 740.261 60.9495 800.457 60.9495ZM971.697 137.717C953.937 58.9031 883.947 0 800.291 0C703.191 0 624.459 79.2565 624.459 176.986C624.459 274.715 703.191 353.972 800.291 353.972C880.849 353.972 948.736 299.383 969.539 224.993H903.754C885.441 263.93 846.158 290.976 800.513 290.976C754.867 290.976 718.849 266.253 699.65 229.971L971.752 137.717H971.697Z" fill="#288CF4"/>
<path d="M591.01 139.607C591.01 68.3714 532.414 10.0731 460.771 10.0181H367.329V72.4452H460.771C497.791 72.4452 528.232 102.007 528.232 138.781C528.232 175.555 497.791 206.658 460.771 206.658H367.329V269.14H444.101L503.812 343.954H584.989L515.855 256.864C560.179 236.11 591.066 191.244 591.066 139.552L591.01 139.607Z" fill="#288CF4"/>
<path d="M1900.09 10.0181H1838L1734.8 284.004L1631.59 10.0181H1569.5L1681.95 308.556C1690.61 329.365 1711.05 343.954 1734.91 343.954C1761.08 343.954 1783.17 326.282 1790.06 302.17L1900.09 10.0181Z" fill="#288CF4"/>
<path d="M1579.51 281.526H1505.06C1447.7 281.416 1401.19 235.725 1401.19 177.977V10.0181H1339.08V177.261C1339.25 269.36 1413.48 343.954 1505.06 343.954H1579.51V281.526Z" fill="#288CF4"/>
<path d="M2036.95 10.0181C1954 10.0181 1886.79 77.1684 1886.74 160.061V343.899H1949.23V159.29C1949.23 110.744 1988.6 71.3891 2037.17 71.3891C2085.75 71.3891 2124.78 110.413 2124.78 158.96V343.954H2187.28V160.116C2187.22 77.2235 2119.96 10.0731 2037.06 10.0731L2036.95 10.0181Z" fill="#288CF4"/>
<path d="M2504.52 281.471H2387.07C2329.56 281.471 2282.88 234.734 2282.88 176.986C2282.88 119.238 2329.5 72.4452 2387.07 72.4452H2504.46V10.0181H2387.01C2295.14 10.0181 2220.67 84.7765 2220.67 176.986C2220.67 269.195 2295.14 343.954 2387.07 343.954H2504.52V281.471Z" fill="#288CF4"/>
<path d="M2548.27 40.1004H2553.25C2555.96 40.1004 2558.06 39.4252 2559.59 38.0186C2561.12 36.6682 2561.91 34.6426 2561.91 31.9982C2561.91 26.9343 2559.02 24.3461 2553.19 24.3461H2548.32V40.1004H2548.27ZM2566.49 31.7731C2566.49 34.1362 2565.93 36.1618 2564.79 37.9623C2563.66 39.7628 2562.02 41.1694 2559.87 42.1822L2570.4 59.6245H2565.02L2555.68 43.6451H2548.21V59.6245H2543.74V20.52H2553.13C2557.38 20.52 2560.66 21.4203 2562.98 23.277C2565.3 25.1338 2566.49 27.947 2566.49 31.7731ZM2525.34 40.1004C2525.34 45.3893 2526.65 50.2282 2529.25 54.7294C2531.85 59.2307 2535.42 62.7754 2539.95 65.4198C2544.48 68.0643 2549.34 69.3584 2554.61 69.3584C2559.87 69.3584 2564.74 68.0643 2569.21 65.4198C2573.68 62.7754 2577.25 59.2307 2579.91 54.7294C2582.57 50.2282 2583.87 45.3331 2583.87 40.0441C2583.87 34.7552 2582.62 30.0851 2580.08 25.5839C2577.53 21.0827 2574.02 17.5379 2569.49 14.7809C2564.96 12.0802 2559.98 10.6736 2554.66 10.6736C2549.34 10.6736 2544.59 11.9677 2540.06 14.6121C2535.53 17.2566 2531.97 20.8013 2529.36 25.3588C2526.7 29.9163 2525.4 34.8115 2525.4 39.9879L2525.34 40.1004ZM2521.21 40.1004C2521.21 34.1925 2522.68 28.6222 2525.63 23.4458C2528.57 18.2694 2532.65 14.162 2537.85 11.1799C2543 8.19787 2548.61 6.67871 2554.61 6.67871C2560.61 6.67871 2566.1 8.14162 2571.25 11.1237C2576.4 14.1058 2580.53 18.1569 2583.53 23.3333C2586.53 28.5097 2588 34.08 2588 40.1004C2588 46.1208 2586.58 51.4098 2583.7 56.5299C2580.81 61.6501 2576.79 65.7574 2571.59 68.852C2566.44 71.9466 2560.72 73.4658 2554.61 73.4658C2548.49 73.4658 2542.83 71.9466 2537.63 68.852C2532.42 65.8137 2528.4 61.7063 2525.51 56.5862C2522.63 51.466 2521.21 45.952 2521.21 40.1004Z" fill="#288CF4"/>
<g clip-path="url(#clip0_1726_4492)">
<path d="M144.594 73.1317L53.4297 124.558V229.08L147.933 282.509L239.766 230.749L293.863 261.805L154.612 340.28C150.605 342.618 145.596 342.618 141.589 340.28L6.67871 264.143C2.33755 261.805 0 257.464 0 252.455V101.182C0 96.5072 2.67148 91.8321 6.67871 89.4945L144.594 12.0215V73.1317Z" fill="#288CF4"/>
<path opacity="0.3" d="M170.975 144.26C167.636 146.264 163.628 143.926 163.628 139.919V17.0306C163.628 13.0234 167.97 10.6859 171.309 12.6895L277.166 74.4675C280.506 76.4711 280.506 81.1462 277.166 83.1499L170.975 144.26Z" fill="#288CF4"/>
<path d="M180.325 165.298C176.986 167.302 176.986 171.977 180.325 173.981L286.183 235.091C289.522 237.094 293.529 234.757 293.529 230.75L293.863 108.529C293.863 104.522 289.856 102.184 286.517 104.188L180.325 165.298Z" fill="#288CF4"/>
</g>
<defs>
<clipPath id="clip0_1726_4492">
<rect width="293.863" height="333.935" fill="white" transform="translate(0 10.0181)"/>
</clipPath>
</defs>
</svg>
