<?xml version="1.0" encoding="iso-8859-1"?>
<!-- Uploaded to: SVG Repo, www.svgrepo.com, Generator: SVG Repo Mixer Tools -->
<svg fill="#000000" height="800px" width="800px" version="1.1" id="Capa_1" xmlns="http://www.w3.org/2000/svg" xmlns:xlink="http://www.w3.org/1999/xlink" 
	 viewBox="0 0 489.2 489.2" xml:space="preserve">
<g>
	<g>
		<g>
			<g>
				<path d="M164.4,448.7h160.4c7.8,0,14.2-6.3,14.2-14.2v-37.9h110.7c21.8,0,39.5-17.7,39.5-39.5V80c0-21.8-17.7-39.5-39.5-39.5
					H39.5C17.7,40.5,0,58.2,0,80v277.1c0,21.8,17.7,39.5,39.5,39.5h110.7v37.9C150.3,442.4,156.6,448.7,164.4,448.7z M53.9,342.3
					v-248h381.4v248H53.9z M272.2,188.4c0,8.9-5.3,16.6-12.9,20.1v90.7h-18.6v-90.7c-7.6-3.5-12.9-11.2-12.9-20.1
					s5.3-16.6,12.9-20.1v-30.8h18.6v30.8C266.9,171.8,272.2,179.5,272.2,188.4z M334.9,243.9c0,8.9-5.3,16.6-12.9,20.1v35.2h-18.6
					V264c-7.6-3.5-12.9-11.2-12.9-20.1s5.3-16.6,12.9-20.1v-86.3H322v86.3C329.6,227.3,334.9,235,334.9,243.9z M209.6,218.4
					c0,8.9-5.3,16.6-12.9,20.1v60.8h-18.6v-60.8c-7.6-3.5-12.9-11.2-12.9-20.1s5.3-16.6,12.9-20.1v-60.8h18.6v60.8
					C204.3,201.8,209.6,209.5,209.6,218.4z"/>
			</g>
		</g>
	</g>
</g>
</svg>