<svg xmlns="http://www.w3.org/2000/svg" version="1.1" viewBox="-5.0 -10.0 110.0 135.0">
 <path d="m71.875 26.562h-3.125v-18.75c0-2.5859-2.1016-4.6875-4.6875-4.6875h-28.125c-2.5859 0-4.6875 2.1016-4.6875 4.6875v18.75h-3.125c-3.4453 0-6.25 2.8047-6.25 6.25v31.25c0 3.4453 2.8047 6.25 6.25 6.25v23.438c0 1.7227 1.4023 3.125 3.125 3.125h1.5625c1.7227 0 3.125-1.4023 3.125-3.125v-23.438h4.6875v19.84c-0.16406 1.3516 2.1914 4.0352 2.9219 5.332 0.58203 0.87109 1.5547 1.3906 2.6016 1.3906h7.7031c1.0469 0 2.0195-0.51953 2.6016-1.3906 0.75391-1.332 3.0781-3.9648 2.9219-5.332v-19.84h4.6875v23.438c0 1.7227 1.4023 3.125 3.125 3.125h1.5625c1.7227 0 3.125-1.4023 3.125-3.125v-23.438c3.4453 0 6.25-2.8047 6.25-6.25v-31.25c0-3.4453-2.8047-6.25-6.25-6.25zm-37.5-18.75c0-0.86328 0.69922-1.5625 1.5625-1.5625h28.125c0.86328 0 1.5625 0.69922 1.5625 1.5625v18.75h-31.25zm-3.125 85.938v-23.438h1.5625v23.438zm25-3.5977-2.3984 3.5977h-7.7031l-2.3984-3.5977v-19.84h12.5zm10.938 3.5977v-23.438h1.5625v23.438zm7.8125-29.688c0 1.7227-1.4023 3.125-3.125 3.125h-14.062c-8.2891-0.019531-21.512 0.011719-29.688 0-1.7227 0-3.125-1.4023-3.125-3.125v-25c0-1.7227 1.4023-3.125 3.125-3.125h43.75c1.7227 0 3.125 1.4023 3.125 3.125zm0-30.41c-0.94531-0.54688-2.0273-0.82031-3.125-0.83984h-43.75c-1.0977 0.019531-2.1797 0.29297-3.125 0.83984-0.24609-2.0234 0.95703-3.9492 3.125-3.9648h43.75c2.1641 0.019531 3.3711 1.9258 3.125 3.9648z"/>
 <path d="m50 7.8125c-4.3086 0-7.8125 3.5039-7.8125 7.8125 0.36719 10.34 15.258 10.336 15.625 0 0-4.3086-3.5039-7.8125-7.8125-7.8125zm0 12.5c-6.1797-0.16016-6.1797-9.2148 0-9.375 6.1797 0.16016 6.1797 9.2148 0 9.375z"/>
 <path d="m50 90.625c6.1797-0.16016 6.1797-9.2148 0-9.375-6.1797 0.16016-6.1797 9.2148 0 9.375zm0-6.25c2.0547 0.035156 2.0547 3.0898 0 3.125-2.0547-0.035156-2.0547-3.0898 0-3.125z"/>
<text x="0.0" y="117.5" font-size="5.0" font-weight="bold" font-family="Arbeit Regular, Helvetica, Arial-Unicode, Arial, Sans-serif" fill="#000000">Created by LUTFI GANI AL ACHMAD</text><text x="0.0" y="122.5" font-size="5.0" font-weight="bold" font-family="Arbeit Regular, Helvetica, Arial-Unicode, Arial, Sans-serif" fill="#000000">from Noun Project</text></svg>