<svg xmlns="http://www.w3.org/2000/svg" version="1.1" viewBox="-5.0 -10.0 110.0 135.0">
 <path d="m78.91 56.234h-10.938v-4.6875c0-4.0898-2.7812-7.4805-7.8125-9.6641v-30.961c-0.078125-0.26562-0.011718-0.50781 0-0.78125 0-3.5781-5.2031-5.8281-11.52-6.6602-0.44531-0.4375-1.1602-0.44531-1.6758-0.18359-7.6953-0.95312-21.516 1.2656-21.184 6.8477 0.007812 0.28125 0.078125 0.51562 0 0.78125v30.961c-5.0312 2.1836-7.8125 5.5742-7.8125 9.6641v32.812c-0.80859 16 45.203 16.344 49.398 3.125h11.539c1.7227 0 3.125-1.4023 3.125-3.125v-3.125c0-1.7227-1.4023-3.125-3.125-3.125h-10.938v-1.5625h10.938c1.7227 0 3.125-1.4023 3.125-3.125v-3.125c0-1.7227-1.4023-3.125-3.125-3.125h-10.938v-1.5625h10.938c1.7227 0 3.125-1.4023 3.125-3.125v-3.125c0-1.7227-1.4023-3.125-3.125-3.125zm-39.062-18.75c0.86328 0 1.5625-0.69922 1.5625-1.5625v-18.781c5.0508 0.14062 11.312-0.41016 15.625-2.7461v36.371c0 1.3789-5.3398 3.9062-14.062 3.9062s-14.062-2.5273-14.062-3.9062v-36.387c2.8555 1.5547 6.1562 2.1875 9.375 2.5469v19c0 0.86328 0.69922 1.5625 1.5625 1.5625zm8.3789-30.914c5.6133 0.8125 9.0352 2.4062 8.7539 3.7617-0.57812 1.5156-6.125 3.7539-14.094 3.7148zm-5.2539-0.33594c0.55859 0 1.1016 0.011719 1.6289 0.03125l-5.4336 7.6055c-6.0273-0.62891-9.7578-2.1641-10.262-3.7305 0-1.3789 5.3398-3.9062 14.062-3.9062zm21.875 78.125c0.66797 12.539-44.426 12.531-43.75 0v-26.082c8.7578 7.7891 34.969 7.8047 43.75 0zm-21.875-23.438c-13.289 0-21.875-3.6797-21.875-9.375 0-2.957 2.2344-4.9375 4.6875-6.2266v5.4453c0 4.6172 8.6484 7.0312 17.188 7.0312 8.5391 0 17.188-2.4141 17.188-7.0312v-5.4453c2.4531 1.2891 4.6875 3.2656 4.6875 6.2266 0 5.6953-8.5859 9.375-21.875 9.375zm35.938 20.312v3.125h-10.938v-3.125zm0-10.938v3.125h-10.938v-3.125zm0-7.8125h-10.938v-3.125h10.938z"/>
<text x="0.0" y="117.5" font-size="5.0" font-weight="bold" font-family="Arbeit Regular, Helvetica, Arial-Unicode, Arial, Sans-serif" fill="#000000">Created by LUTFI GANI AL ACHMAD</text><text x="0.0" y="122.5" font-size="5.0" font-weight="bold" font-family="Arbeit Regular, Helvetica, Arial-Unicode, Arial, Sans-serif" fill="#000000">from Noun Project</text></svg>