<?xml version="1.0" encoding="UTF-8" standalone="no"?>
<!-- Created with Inkscape (http://www.inkscape.org/) -->

<svg
   width="512"
   height="512"
   viewBox="0 0 512 512"
   version="1.1"
   id="svg1"
   xml:space="preserve"
   inkscape:version="1.4.2 (f4327f4, 2025-05-13)"
   sodipodi:docname="dessin.svg"
   xmlns:inkscape="http://www.inkscape.org/namespaces/inkscape"
   xmlns:sodipodi="http://sodipodi.sourceforge.net/DTD/sodipodi-0.dtd"
   xmlns="http://www.w3.org/2000/svg"
   xmlns:svg="http://www.w3.org/2000/svg"><sodipodi:namedview
     id="namedview1"
     pagecolor="#ffffff"
     bordercolor="#000000"
     borderopacity="0.25"
     inkscape:showpageshadow="2"
     inkscape:pageopacity="0.0"
     inkscape:pagecheckerboard="0"
     inkscape:deskcolor="#d1d1d1"
     inkscape:document-units="px"
     inkscape:zoom="0.39404297"
     inkscape:cx="145.92317"
     inkscape:cy="709.31351"
     inkscape:window-width="1920"
     inkscape:window-height="1009"
     inkscape:window-x="-8"
     inkscape:window-y="-8"
     inkscape:window-maximized="1"
     inkscape:current-layer="layer1" /><defs
     id="defs1" /><g
     inkscape:label="Calque 1"
     inkscape:groupmode="layer"
     id="layer1"><path
       style="fill:#000000;stroke-width:0.562266"
       d="m -3.190992,527.73338 c -2.0317855,-0.68757 -3.6545915,-1.56688 -3.6545915,-1.98017 0,-0.41652 1.6688022,-1.30646 3.7951543,-2.02378 2.1433376,-0.72303 3.7951633,-1.02875 3.7951633,-0.70228 0,0.31785 -0.5060271,0.71027 -1.1244947,0.87204 -1.3602995,0.35577 -1.6429903,3.53663 -0.3142929,3.53663 0.7698751,0 1.7723061,1.01155 1.3545004,1.3668 -0.1082937,0.0921 -1.8414116,-0.38909 -3.8514389,-1.06924 z m 0.5622514,-1.90644 c 0,-0.81318 -0.3135146,-0.98665 -1.40562,-0.77787 -2.1900523,0.41867 -1.6698713,1.34876 0.9839314,1.75923 0.2319309,0.0361 0.4216886,-0.40575 0.4216886,-0.98136 z m -1.3184684,-5.04226 c -0.5118165,-0.56555 -0.9305116,-1.32463 -0.9305116,-1.68687 0,-0.36222 -0.6325286,-0.65861 -1.40562,-0.65861 -0.773083,0 -1.4056111,-0.25302 -1.4056111,-0.56228 0,-0.32152 1.6925868,-0.56229 3.9533695,-0.56229 4.3620668,0 5.1491505,0.61498 4.0040269,3.12845 -0.7559945,1.65937 -2.8682859,1.83054 -4.2156537,0.3416 z m 3.4623618,-1.36147 c 0.1456774,-0.76438 -0.1981393,-0.98401 -1.5404439,-0.98401 -1.6417501,0 -2.2948565,0.93249 -1.3294244,1.89806 0.7171999,0.71721 2.6779725,0.0927 2.8698683,-0.91405 z m -3.5093673,-4.67902 c -0.4859446,-0.48598 -0.8835061,-1.22698 -0.8835061,-1.64672 0,-1.09815 1.5910927,-2.53029 2.8112228,-2.53029 1.2200701,0 2.8112319,1.43214 2.8112319,2.53029 0,1.09821 -1.5911618,2.5303 -2.8112319,2.5303 -0.5743363,0 -1.4417635,-0.39759 -1.9277167,-0.88358 z m 3.3333281,-1.63901 c 0,-1.24047 -1.7479656,-1.85825 -2.6644764,-0.94168 -0.9450254,0.94511 -0.013,2.43877 1.3968964,2.23859 0.829419,-0.1178 1.26758,-0.5661 1.26758,-1.29691 z M 204.144,509.71875 c -3.27409,-1.84421 -3.23998,-1.49536 -3.23998,-33.14206 v -28.98578 l -4.91965,-0.0124 c -5.63348,-0.0141 -8.34091,-0.96001 -11.2196,-3.9196 -2.8615,-2.9419 -3.53934,-5.81558 -3.53934,-15.00484 v -8.053 h -73.27284 c -65.807832,0 -73.542868,-0.092 -75.92308,-0.90309 -3.606859,-1.22907 -8.304241,-5.62607 -9.985925,-9.34735 l -1.339156,-2.96336 V 292.96172 178.53611 l 1.562928,-3.18286 c 1.799812,-3.6653 5.039412,-6.82298 8.769797,-8.54797 l 2.59892,-1.20179 H 265.84334 498.05062 l 3.18261,1.56304 c 3.66503,1.79996 6.82247,5.03983 8.54734,8.77046 l 1.20169,2.59912 v 114.42561 114.42562 l -1.33916,2.96333 c -1.68166,3.72127 -6.37908,8.11828 -9.98594,9.34735 -2.38018,0.81107 -10.1113,0.90309 -75.8747,0.90309 H 350.558 l -0.19351,9.13718 c -0.2091,9.87369 -0.48878,10.95898 -3.64618,14.14939 -2.70838,2.73667 -5.51526,3.67709 -11.01599,3.69092 l -4.91965,0.0124 v 28.98577 c 0,24.8091 -0.1229,29.22342 -0.85288,30.6352 -1.96456,3.79932 -7.60742,4.40581 -10.53258,1.13199 l -1.54619,-1.73044 v -29.45855 -29.45855 l -5.76301,-0.33511 c -7.50356,-0.43634 -7.59395,-0.43639 -14.33726,-0.007 l -5.763,0.36722 v 28.62953 c 0,31.41599 -0.0221,31.63949 -3.30126,33.3353 -2.40495,1.24378 -5.25434,1.10787 -7.09259,-0.33822 -3.09181,-2.43218 -3.10004,-2.52051 -3.10004,-33.28936 v -28.35933 l -5.48189,-0.3456 c -3.01505,-0.19004 -6.24092,-0.34551 -7.16863,-0.34551 -0.9277,0 -4.15358,0.15547 -7.16863,0.34551 l -5.48188,0.3456 v 28.35933 c 0,30.76885 -0.008,30.85718 -3.10005,33.28936 -2.99738,2.35795 -7.80532,1.16264 -9.47465,-2.35548 -0.8134,-1.71425 -0.91919,-5.23637 -0.91919,-30.60411 V 447.7217 l -5.76302,-0.36722 c -6.7433,-0.4297 -6.83368,-0.42965 -14.33726,0.007 l -5.763,0.33511 v 29.45857 29.45855 l -1.56442,1.75102 c -1.89932,2.12584 -5.64835,2.7506 -8.12724,1.35427 z m 16.15748,-96.98967 v -21.64809 l -12.79107,-0.15113 -12.79109,-0.15113 v 21.95035 21.95035 l 12.79109,-0.15114 12.79107,-0.15112 z m 39.07604,0 v -21.92924 h -12.93165 -12.93163 v 21.92924 21.92923 h 12.93163 12.93165 z m 38.79493,0 V 390.79984 H 285.2408 272.30916 v 21.92924 21.92923 h 12.93164 12.93165 z m 38.86583,18.97722 c 0.11806,-4.91327 0.12731,-15.20296 0.0256,-28.4061 l -0.0965,-12.52147 -12.79109,0.15113 -12.79108,0.15113 -0.14753,21.08381 c -0.0812,11.59609 -0.0259,21.40097 0.12291,21.78865 0.20569,0.53609 3.3036,0.70486 12.93862,0.70486 h 12.66817 z M 181.22857,398.25017 c 0.002,-5.18009 0.28331,-10.43045 0.62573,-11.66749 0.85368,-3.0839 5.10627,-7.27507 8.2372,-8.1182 1.66999,-0.44973 7.3893,-0.55957 18.83423,-0.36172 9.03977,0.15626 17.44799,0.25878 18.68494,0.2278 1.23694,-0.031 9.77604,-0.049 18.97577,-0.0401 21.79909,0.0211 19.32077,0.0232 38.51381,-0.0305 9.19972,-0.0257 17.73883,-0.004 18.97576,0.047 1.23695,0.0516 9.71279,-0.0411 18.83522,-0.20611 18.25973,-0.33014 19.85453,-0.14332 23.34604,2.73488 3.71503,3.06247 4.17757,4.89112 4.19163,16.57094 l 0.0124,10.26172 h 72.17269 c 72.16381,0 72.17288,-1.4e-4 73.65413,-1.16539 l 1.48143,-1.16539 V 293.26432 c 0,-106.08138 -0.0528,-112.13861 -0.98815,-113.29377 l -0.98816,-1.22042 -229.95407,0.0266 -229.954066,0.0265 -0.983931,1.19391 c -0.929785,1.12826 -0.983931,7.36046 -0.983931,113.26731 v 112.07336 l 1.481405,1.1654 c 1.481294,1.16524 1.490342,1.16537 73.654143,1.16537 h 72.17267 z M 132.02898,377.53604 C 115.22017,375.12458 102.96406,370.48042 90.876592,361.94232 84.755903,357.61893 75.725106,348.63918 71.412376,342.58813 59.686695,326.13634 53.902989,304.88625 55.83931,285.37084 c 1.932994,-19.48216 9.676745,-36.46219 23.026791,-50.49186 16.293416,-17.12288 37.597459,-26.30712 61.034309,-26.31202 14.79413,-0.003 26.29647,2.69217 38.82184,9.09688 10.71315,5.47805 21.98649,14.97591 29.22668,24.62365 12.32743,16.4266 18.52052,37.81817 16.65476,57.52727 -1.16904,12.34923 -3.24482,19.82274 -8.48226,30.53911 -11.57739,23.68861 -33.57508,40.63162 -59.57718,45.8874 -5.19599,1.05026 -20.5626,1.86185 -24.51527,1.29477 z m 21.43052,-13.99966 c 25.31768,-4.80304 46.49026,-23.32691 54.71126,-47.8668 4.68583,-13.98734 4.69534,-31.5275 0.0245,-45.19938 -7.40792,-21.68349 -24.12294,-38.28107 -45.8205,-45.49859 -17.20344,-5.72258 -37.57056,-4.23904 -53.88401,3.9249 -13.20326,6.60748 -24.731855,17.81883 -31.764334,30.89023 -2.842406,5.28323 -5.945573,14.49449 -7.080971,21.01888 -1.102957,6.33768 -1.121849,18.43121 -0.03823,24.64408 4.54763,26.08018 23.748863,47.92904 49.209215,55.99463 4.64488,1.47145 7.50731,2.05751 15.46175,3.16564 3.12422,0.43524 14.61976,-0.20816 19.18155,-1.07359 z m -19.7237,-28.42932 c -9.94195,-1.55851 -20.07634,-7.36371 -26.45768,-15.15551 -3.36648,-4.11057 -6.67258,-10.57071 -8.217521,-16.05703 -1.753047,-6.22535 -1.76314,-15.60529 -0.02348,-21.78017 4.183151,-14.84763 15.681641,-26.34345 30.300501,-30.29348 6.28845,-1.69912 15.70902,-1.69187 21.77582,0.0168 8.56148,2.41124 16.35396,7.40057 21.8484,13.98896 3.17243,3.80408 7.33682,11.95162 8.55248,16.73277 4.40956,17.34259 -3.05624,36.34611 -18.0685,45.99174 -4.18231,2.6872 -9.65029,5.0479 -13.89669,5.9996 -3.91168,0.8767 -11.96288,1.15995 -15.81338,0.55634 z m 12.3493,-13.19364 c 5.88665,-1.24151 10.60265,-3.80865 14.87037,-8.09467 9.18978,-9.2292 11.23918,-22.76095 5.24158,-34.60907 -1.95418,-3.86043 -8.65038,-10.41565 -12.59527,-12.3301 -11.29151,-5.47975 -23.98922,-3.80759 -32.91635,4.33477 -3.99912,3.64758 -7.17915,8.51143 -8.62446,13.19115 -1.32976,4.30562 -1.48633,11.89537 -0.33459,16.22112 2.76169,10.37267 11.79505,18.99521 22.27045,21.25766 4.77553,1.03141 7.30703,1.03751 12.08827,0.029 z m 233.89403,55.17657 c -36.17961,-5.27265 -64.81966,-32.45551 -71.63058,-67.98599 -2.33478,-12.17986 -2.07616,-23.60188 0.80878,-35.71993 8.51361,-35.76084 39.84585,-62.3649 76.16326,-64.66988 21.50034,-1.36457 40.18058,4.13042 57.06775,16.78709 5.54096,4.15285 13.25782,11.86111 17.13901,17.1199 16.63856,22.54426 21.14282,51.78114 12.02321,78.04193 -9.92207,28.57156 -33.98988,49.5764 -63.68269,55.57816 -7.05183,1.42537 -21.01592,1.85034 -27.88874,0.84872 z m 24.88033,-13.58344 c 25.70122,-5.16305 46.42732,-23.33706 54.66836,-47.93684 2.40217,-7.17051 3.38248,-13.75923 3.38248,-22.73388 0,-19.17113 -6.64391,-35.57474 -19.97253,-49.31159 -8.63054,-8.89485 -17.92598,-14.78498 -29.22393,-18.51796 -21.01363,-6.94314 -45.53716,-3.28939 -63.25471,9.42434 -19.61854,14.07785 -30.422,34.87571 -30.40402,58.5311 0.009,12.52574 2.34618,22.29416 7.92066,33.11264 8.68252,16.8503 23.80252,29.53226 42.16407,35.36525 4.64498,1.47558 7.50321,2.06166 15.46175,3.17036 3.18127,0.4432 14.90194,-0.22836 19.25787,-1.10342 z M 383.91483,334.9158 c -28.30834,-5.43365 -43.29834,-36.16813 -30.05302,-61.61876 5.48679,-10.54276 14.95306,-18.14777 26.71138,-21.45938 6.26397,-1.76419 15.59995,-1.76419 21.86393,0 14.8796,4.1907 25.9986,15.31053 30.18897,30.19127 1.76405,6.26446 1.76405,15.60115 0,21.86559 -5.13717,18.24294 -20.64866,30.64368 -39.43419,31.52589 -3.22213,0.15131 -6.90287,-0.0489 -9.27707,-0.50461 z m 13.49391,-13.00024 c 10.85914,-2.28427 19.69902,-10.65251 22.56699,-21.36294 1.13804,-4.25004 0.97302,-11.86329 -0.35003,-16.14712 -1.44529,-4.67972 -4.62532,-9.54357 -8.62444,-13.19115 -5.45103,-4.97184 -11.98538,-7.47826 -19.49612,-7.47826 -8.202,0 -14.58076,2.68345 -20.5832,8.65904 -6.16118,6.13362 -8.6639,12.08007 -8.63979,20.52808 0.007,2.64988 0.27596,5.9566 0.59644,7.34826 2.36795,10.28226 11.7209,19.2888 22.44186,21.61064 4.77049,1.03315 7.30257,1.04015 12.08829,0.0335 z M 233.79537,239.32732 c -6.72593,-1.63575 -12.48389,-6.48039 -15.63182,-13.1523 -1.58842,-3.36659 -1.78446,-4.33444 -1.79073,-8.84104 -0.008,-6.05933 1.09892,-9.70456 4.20334,-13.83647 2.98268,-3.96987 7.27589,-7.0341 11.76648,-8.39818 3.63037,-1.10277 4.93688,-1.1395 34.94116,-0.98237 l 31.16977,0.16321 3.78995,1.79546 c 12.27259,5.81405 17.03341,20.92611 10.23765,32.49699 -2.98704,5.08591 -9.14408,9.60361 -14.89473,10.92891 -3.74445,0.86297 -60.15992,0.70889 -63.79107,-0.17421 z M 297.0089,225.7885 c 2.2059,-1.14079 4.38304,-3.87407 5.16505,-6.48436 1.38711,-4.63013 -2.09576,-10.40235 -7.09385,-11.75676 -3.00257,-0.81367 -55.39652,-0.83943 -58.31548,-0.0287 -2.48998,0.69159 -5.22389,2.87209 -6.36292,5.07491 -1.04498,2.02092 -1.06318,6.86521 -0.0332,8.8449 0.99886,1.91992 3.01884,3.81816 4.83279,4.54155 0.86674,0.34562 12.67507,0.57407 30.81057,0.59605 24.76777,0.0301 29.65629,-0.0942 30.99707,-0.78759 z M -7.6889517,508.905 c 0,-0.32282 0.6008662,-0.58697 1.3353339,-0.58697 1.0312105,0 1.4114615,-0.38073 1.6696489,-1.67186 0.46919,-2.34593 2.9317641,-2.97421 4.4257072,-1.12913 0.580913,0.71749 0.9809976,1.83099 0.8890224,2.47447 -0.1491664,1.04393 -0.6062204,1.18777 -4.2434413,1.3352 -2.5622552,0.1038 -4.0762711,-0.0527 -4.0762711,-0.42171 z m 7.1948249,-1.80405 c 0.2122513,-1.11417 -1.970839,-1.98308 -2.8281485,-1.1257 -0.3191336,0.31921 -0.4212865,0.99462 -0.2270302,1.50102 0.4542401,1.18379 2.8134124,0.894 3.0551787,-0.37532 z m -3.5000877,-4.72709 c -1.1085778,-1.10867 -1.1248278,-2.15216 -0.047211,-3.04647 1.1387772,-0.94511 2.6500824,-0.26845 2.4327167,1.08925 -0.09709,0.60653 0.076461,1.17761 0.3857075,1.26897 0.3092382,0.0913 0.643091,-0.40322 0.7418742,-1.09905 0.2023044,-1.42439 1.2259803,-1.74568 1.2259803,-0.38472 0,2.73306 -2.8649167,4.04617 -4.7389398,2.17202 z m 1.1340477,-2.34672 c -0.6142003,-0.61424 -1.0353757,0.36262 -0.5944009,1.37862 0.4181392,0.96342 0.4484498,0.96253 0.6813813,-0.0197 0.134097,-0.56538 0.094969,-1.17687 -0.08698,-1.35889 z m -3.6845001,-6.29162 c -0.3201516,-0.59821 -0.5820338,-1.48381 -0.5820338,-1.968 0,-1.33605 1.020973,-1.05232 1.2259202,0.34069 0.2763961,1.87838 1.4224174,1.84953 2.410112,-0.0608 1.090814,-2.10953 2.8821243,-2.27771 3.7591132,-0.35283 0.628877,1.38041 0.3427565,3.1284 -0.5122096,3.1284 -0.2537915,0 -0.4514775,-0.67109 -0.4392729,-1.49136 0.03156,-2.12832 -1.1627246,-2.25341 -2.2082779,-0.23132 -1.0205282,1.97357 -2.7739419,2.27838 -3.6533512,0.6351 z m 1.6669463,-4.53529 c 0,-0.30926 -0.3795155,-0.56229 -0.8433772,-0.56229 -0.4638531,0 -0.84336,-0.25303 -0.84336,-0.56229 0,-0.30925 0.3584331,-0.56228 0.7964743,-0.56228 0.4381011,0 0.9441189,-0.3163 1.1244858,-0.70286 0.262404,-0.5623 0.393576,-0.5623 0.65598,0 0.1803668,0.38656 1.0448178,0.70286 1.9210199,0.70286 0.8761423,0 1.705955,-0.3163 1.8439948,-0.70286 0.1380911,-0.38659 0.4434467,-0.52399 0.6785759,-0.30538 0.9803309,0.91136 -0.2932194,2.13281 -2.2237923,2.13281 -1.092054,0 -1.9855156,0.25303 -1.9855156,0.56229 0,0.30927 -0.2530131,0.56229 -0.5622513,0.56229 -0.3092297,0 -0.5622343,-0.25302 -0.5622343,-0.56229 z m 0.8835061,-4.2573 c -0.4859446,-0.48599 -0.8835061,-1.22698 -0.8835061,-1.64674 0,-1.09813 1.5910927,-2.53028 2.8112228,-2.53028 1.1162752,0 2.8112319,1.40257 2.8112319,2.3263 0,2.43403 -2.9886224,3.60117 -4.7389486,1.85072 z m 3.3333281,-1.63902 c 0,-1.24047 -1.7479656,-1.85824 -2.6644764,-0.94166 -0.9450254,0.94509 -0.013,2.43875 1.3968964,2.23856 0.829419,-0.11778 1.26758,-0.5661 1.26758,-1.2969 z m -3.3333281,-4.54617 c -0.9595221,-0.95953 -1.2065826,-3.05243 -0.3603916,-3.05243 0.287754,0 0.6040139,0.56932 0.7027971,1.26515 0.1316254,0.92677 0.5556744,1.26514 1.5853112,1.26514 1.0295855,0 1.4536858,-0.33837 1.5852513,-1.26514 0.2192131,-1.54336 1.2259806,-1.69181 1.2259806,-0.18071 0,1.3767 -1.4540884,2.85158 -2.8112319,2.85158 -0.5743363,0 -1.4417635,-0.3976 -1.9277167,-0.88359 z m -3.6947372,-4.73929 c 0,-0.30926 1.1385459,-0.56229 2.5300968,-0.56229 2.7465733,0 3.1616764,-0.45961 1.4056199,-1.55636 -0.6184765,-0.38623 -1.1244856,-0.98226 -1.1244856,-1.32446 0,-0.36898 0.5937764,-0.23313 1.4589115,0.33377 1.401951,0.91866 1.511767,0.90642 2.8112228,-0.31448 1.1111613,-1.04395 1.3523204,-1.10613 1.3523204,-0.34885 0,0.50695 -0.5060271,1.1925 -1.1244947,1.52351 -0.6184766,0.33103 -1.1244943,0.84603 -1.1244943,1.14438 0,0.29841 0.5060177,0.54249 1.1244943,0.54249 0.6184676,0 1.1244947,0.25303 1.1244947,0.56229 0,0.32489 -1.7804662,0.56229 -4.2168433,0.56229 -2.4364371,0 -4.2168425,-0.2374 -4.2168425,-0.56229 z m 0.8433682,-8.45035 c -0.7105722,-0.2952 0.92798,-0.48177 4.4510659,-0.50674 3.0666052,-0.0219 5.4047468,0.13142 5.1958826,0.34031 -0.5693337,0.56931 -8.3540696,0.70365 -9.6469485,0.16643 z m 4.4416237,-5.69794 c -0.1862169,-0.30134 -0.6398325,-0.43224 -1.0080499,-0.29093 -0.3682089,0.1413 -1.1500155,-0.0944 -1.7372834,-0.52394 -0.9397912,-0.68723 -0.9537833,-0.78091 -0.1170601,-0.78091 0.5230032,0 0.9508669,-0.25303 0.9508669,-0.56228 0,-0.30926 -0.4278637,-0.56228 -0.9508669,-0.56228 -0.8283502,0 -0.8106889,-0.10237 0.1370306,-0.79547 1.246207,-0.91137 1.9586345,-0.24702 1.5227229,1.41999 -0.1528187,0.58434 -0.010175,1.06233 0.3168245,1.06233 0.86091,0 1.3435363,-0.99074 0.6029022,-1.23765 -0.4221932,-0.14075 -0.3773858,-0.40911 0.1370135,-0.82055 0.5731475,-0.45831 1.0442619,-0.33917 1.8823362,0.47603 0.9350185,0.90956 0.9580084,1.02607 0.1405629,0.71237 -0.6664313,-0.25578 -0.9772945,-0.10072 -0.9772945,0.48729 0,0.47428 0.4427708,0.95442 0.9839314,1.06693 0.8002977,0.16632 0.7478955,0.26911 -0.2805613,0.55071 -0.6955016,0.19039 -1.4168581,0.0997 -1.603075,-0.20164 z m -3.8192215,-5.85886 c -0.1877308,-0.4892 -0.3412765,-0.99526 -0.3412765,-1.12459 0,-0.12939 1.644564,-0.2352 3.6545915,-0.2352 2.0615228,0 3.6546004,0.2451 3.6546004,0.56228 0,0.30926 -1.2650576,0.56229 -2.8112319,0.56229 -1.5461828,0 -2.8112228,0.25303 -2.8112228,0.56229 0,0.88954 -0.9690413,0.65394 -1.3454607,-0.32707 z m 0.336889,-3.43138 c -0.3729811,-0.67553 -0.6781655,-1.37135 -0.6781655,-1.54629 0,-0.17499 1.644564,-0.31814 3.6545915,-0.31814 2.0615228,0 3.6546004,0.2451 3.6546004,0.56228 0,0.30928 -1.246507,0.56231 -2.7700252,0.56231 -2.1846555,0 -2.8135834,0.20798 -2.976349,0.98399 -0.1803754,0.8599 -0.2919704,0.82909 -0.8846522,-0.24415 z m 0.071671,-4.57545 c -1.5584302,-1.5442 -0.1134509,-3.88326 1.987038,-3.21656 0.6072811,0.19274 1.2522281,0.11088 1.4331595,-0.18191 0.5116454,-0.82791 2.5018223,-0.0733 2.8705441,1.08838 0.1819402,0.57346 0.058239,1.55202 -0.2749422,2.17464 -0.4780163,0.89325 -1.0972199,1.10529 -2.9358692,1.00526 -1.2815296,-0.0697 -2.6675212,-0.46114 -3.0799302,-0.86981 z m 2.0613605,-1.53931 c 0,-0.44562 -0.3795069,-0.81027 -0.84336,-0.81027 -0.8469093,0 -1.1558056,1.187 -0.4838151,1.85904 0.5246883,0.52473 1.3271751,-0.10936 1.3271751,-1.04877 z m 3.2676608,0.16733 c 0.1299406,-0.67474 -0.172832,-0.9776 -0.977457,-0.9776 -0.8046336,0 -1.1657095,0.36117 -1.1657095,1.16585 0,1.44093 1.8609204,1.27746 2.1431665,-0.18825 z m -3.9805244,-5.215 c -2.682249,-1.82277 -2.6538541,-2.51005 0.1037265,-2.51005 1.2119794,0 2.3496277,-0.316 2.5301058,-0.70287 0.262404,-0.56228 0.393576,-0.56228 0.6559798,0 0.1803584,0.38659 0.7013433,0.70287 1.1576615,0.70287 0.4563701,0 0.6708101,0.25719 0.4765536,0.57151 -0.1942565,0.31426 -0.5886703,0.42588 -0.8765441,0.24792 -0.2878652,-0.17791 -0.5233881,0.45056 -0.5233881,1.39654 0,2.10915 -0.7598775,2.17258 -3.524095,0.29408 z m 2.3996008,-0.82318 c 0,-0.85649 -0.3686023,-1.12008 -1.5461743,-1.10585 l -1.5461744,0.0185 1.3273547,1.10586 c 1.6490542,1.37394 1.764994,1.3727 1.764994,-0.0185 z m -3.4049567,-4.973 c -1.535663,-1.24357 -1.1953273,-2.62031 0.8817187,-3.56674 1.685326,-0.76794 4.049228,-0.13187 4.9714772,1.33767 0.4563787,0.72734 0.3503941,1.22341 -0.450579,2.10858 -1.3000203,1.43662 -3.7109876,1.49039 -5.4026169,0.12049 z m 4.2023377,-0.42888 c 1.3472483,-0.51703 1.0643776,-1.84248 -0.4757157,-2.22905 -1.7418932,-0.43723 -3.6951311,0.17365 -3.6951311,1.15566 0,1.19719 2.3035203,1.79001 4.1708468,1.07339 z m -4.617167,-5.10404 c -0.3729898,-0.6755 -0.678174,-1.37133 -0.678174,-1.54629 0,-0.17496 1.6445725,-0.31811 3.6545914,-0.31811 2.0615229,0 3.6546003,0.2451 3.6546003,0.56228 0,0.30927 -1.2465068,0.5623 -2.7700165,0.5623 -2.1846555,0 -2.8135919,0.20793 -2.9763575,0.984 -0.1803669,0.85986 -0.2919704,0.82905 -0.8846437,-0.24418 z m -0.3094607,-4.00495 c -0.2609842,-0.40414 -0.3125994,-1.38027 -0.1146397,-2.16915 0.2917567,-1.16249 0.6240443,-1.38389 1.7530886,-1.16804 0.7662237,0.14649 1.5285217,0.0473 1.6940412,-0.22055 1.1139745,-1.80259 4.2199393,1.04325 3.4183931,3.13214 -0.5322235,1.38711 -1.2625259,1.02606 -1.2381765,-0.61212 0.026941,-1.82724 -1.3381395,-2.45837 -1.7673031,-0.81699 -0.3546614,1.35622 -1.3028941,1.60396 -1.3028941,0.34039 0,-1.52756 -1.6058804,-0.89698 -1.7899591,0.70286 -0.1243043,1.08031 -0.3209298,1.32485 -0.6525504,0.81146 z M -6.3030975,418.32 c -0.2020051,-0.32683 -0.2121314,-1.21244 -0.022579,-1.96801 0.4470985,-1.78155 2.8267545,-1.859 4.6444927,-0.15117 l 1.3013117,1.22259 v -1.50373 c 0,-0.82705 0.2530046,-1.50374 0.5622426,-1.50374 0.3092381,0 0.5622522,1.01212 0.5622522,2.24915 0,2.61523 -0.4323116,2.77737 -2.2489804,0.84343 -0.7263084,-0.77315 -1.9384503,-1.40572 -2.6936667,-1.40572 -1.1615358,0 -1.3317336,0.21666 -1.1044725,1.40572 0.271675,1.42128 -0.3249239,1.90504 -1.0006861,0.81148 z m 0,-5.62288 c -0.2020051,-0.32684 -0.2121314,-1.21243 -0.022579,-1.968 0.4470985,-1.78155 2.8267545,-1.85902 4.6444927,-0.15119 l 1.3013117,1.2226 v -1.50372 c 0,-0.82708 0.2530046,-1.50375 0.5622426,-1.50375 0.3092381,0 0.5622522,1.01211 0.5622522,2.24915 0,2.61523 -0.4323116,2.77735 -2.2489804,0.84344 -0.7263084,-0.77315 -1.9384503,-1.40573 -2.6936667,-1.40573 -1.1615358,0 -1.3317336,0.21665 -1.1044725,1.40573 0.271675,1.42127 -0.3249239,1.90504 -1.0006861,0.81147 z m 0.2894988,-6.17445 c -1.511424,-2.82433 1.6638502,-4.99953 4.3597064,-2.98662 1.4347417,1.07127 2.7705808,3.57015 1.9084819,3.57015 -0.2496265,0 -0.7905134,-0.69583 -1.2019131,-1.54629 -0.6723839,-1.39003 -0.7728605,-1.43264 -0.9940919,-0.42173 -0.5754653,2.62925 -2.9703536,3.44348 -4.0721833,1.38449 z m 2.7211035,-1.56909 c 0.1915623,-1.30186 -0.2582387,-1.51015 -1.5266057,-0.70696 -0.941707,0.5963 -0.3749655,2.49519 0.6444423,2.15943 0.3863748,-0.12726 0.7833803,-0.78087 0.8821634,-1.45247 z M 252.44935,151.23802 c -18.89163,-1.97253 -34.53,-6.46789 -50.94125,-14.64342 -14.13102,-7.0396 -26.83109,-16.04116 -35.95654,-25.48528 l -4.14783,-4.29268 0.29741,-2.63875 c 0.40928,-3.63146 2.75065,-5.767823 6.32132,-5.767823 2.36575,0 2.84461,0.288456 7.722,4.651633 11.59522,10.37273 19.90957,16.08764 32.05976,22.03648 31.74642,15.54331 66.77512,17.86648 100.45192,6.66218 16.80681,-5.59165 33.82064,-15.77676 47.69651,-28.55294 4.95882,-4.565816 5.33464,-4.797353 7.7871,-4.797353 2.18084,0 2.87058,0.293783 4.48845,1.911783 1.47565,1.47574 1.91164,2.37982 1.91164,3.96393 0,3.12082 -1.16834,4.79988 -6.86194,9.86162 -22.3964,19.91087 -47.25351,31.70954 -75.94936,36.05012 -8.57933,1.29772 -27.1187,1.85077 -34.87919,1.0405 z m -1.20435,-32.6674 c -22.96614,-2.94344 -46.43286,-14.13037 -62.2887,-29.693922 -4.19521,-4.117888 -4.35741,-4.374246 -4.35741,-6.887612 0,-4.471967 3.82129,-7.489091 8.11892,-6.41037 0.75866,0.190418 3.28359,2.111982 5.61098,4.270134 13.9763,12.959982 31.03555,21.44834 50.51464,25.13511 3.94719,0.74707 8.09236,0.98022 17.28104,0.97198 10.93216,-0.009 12.76357,-0.15428 19.14916,-1.51064 16.49301,-3.50328 30.87489,-10.337646 43.54118,-20.69104 2.16463,-1.769375 4.69474,-4.025808 5.62245,-5.014294 3.29778,-3.513822 6.44995,-4.246242 9.71275,-2.256772 3.58937,2.1886 3.8651,7.092489 0.59261,10.539452 -3.37881,3.558947 -11.88562,10.394202 -17.74111,14.255054 -13.59575,8.96443 -28.96144,14.69816 -45.80685,17.09287 -6.40179,0.91008 -23.5177,1.02439 -29.94966,0.20005 z m 6.1939,-31.987561 c -17.34193,-1.978485 -34.0595,-9.620003 -45.43054,-20.766064 -4.1559,-4.073668 -4.35741,-4.388118 -4.35741,-6.799749 0,-2.913732 1.0272,-4.657972 3.49464,-5.934027 2.82356,-1.460229 4.97239,-0.72099 9.57614,3.2944 9.87833,8.615844 19.98448,13.741639 31.90885,16.183999 8.3473,1.709704 21.8949,1.373939 29.89432,-0.74091 10.61552,-2.806475 18.97416,-7.247656 27.68112,-14.707768 2.73594,-2.344145 5.57531,-4.412904 6.30971,-4.597245 4.64796,-1.166652 9.06112,3.832207 7.51619,8.513728 -1.26664,3.838307 -13.44838,13.2155 -23.32937,17.958377 -13.2049,6.338353 -29.38409,9.178729 -43.26365,7.595259 z m 2.64854,-28.94681 c -9.99518,-2.171702 -17.99121,-10.041238 -20.67576,-20.348687 -3.62155,-13.905185 5.38574,-28.750135 19.70808,-32.4809161 17.01217,-4.4314427 33.99248,8.7611841 33.99248,26.4100011 0,12.735188 -9.10602,23.758828 -21.85897,26.462202 -4.51841,0.957813 -6.59798,0.949879 -11.16583,-0.04262 z m 13.13219,-14.645978 c 5.31137,-3.276537 7.85625,-9.811667 6.13144,-15.745245 -2.88962,-9.940691 -14.7637,-13.447664 -22.65623,-6.691442 -3.20781,2.745979 -4.62939,5.955935 -4.61416,10.418872 0.015,4.395518 1.23854,7.287477 4.34295,10.265057 2.96026,2.839308 5.71982,3.80231 10.33018,3.604924 2.98301,-0.127712 4.26637,-0.495336 6.46582,-1.852166 z"
       id="path1" /></g></svg>
