<svg xmlns="http://www.w3.org/2000/svg" data-name="Layer 1" viewBox="0 0 35 43.75" x="0px" y="0px"><title>tecnologia</title><g><path d="M32.9082,19.08209V8.083a1.75211,1.75211,0,0,0-1.75-1.75h-.377a1.75212,1.75212,0,0,0-1.75,1.75V19.05762H5.71094V8.083a1.75212,1.75212,0,0,0-1.75-1.75H3.584a1.75212,1.75212,0,0,0-1.75,1.75V19.12506A2.08191,2.08191,0,0,0,.25,21.14063V26.584a2.08575,2.08575,0,0,0,2.084,2.083H32.666a2.08575,2.08575,0,0,0,2.084-2.083V21.14063A2.079,2.079,0,0,0,32.9082,19.08209ZM30.53125,8.083a.25048.25048,0,0,1,.25-.25h.377a.25048.25048,0,0,1,.25.25V19.05762h-.877ZM3.334,8.083a.25048.25048,0,0,1,.25-.25h.377a.25048.25048,0,0,1,.25.25V19.05762H3.334ZM33.25,26.584a.58411.58411,0,0,1-.584.583H2.334a.58411.58411,0,0,1-.584-.583V21.14063a.58411.58411,0,0,1,.584-.583H32.666a.58411.58411,0,0,1,.584.583Z"/><path d="M30.44531,21.9375a.7502.7502,0,0,0-.75.75v2.80566a.75.75,0,0,0,1.5,0V22.6875A.75019.75019,0,0,0,30.44531,21.9375Z"/><path d="M28.19043,21.9375a.7502.7502,0,0,0-.75.75v2.80566a.75.75,0,0,0,1.5,0V22.6875A.7502.7502,0,0,0,28.19043,21.9375Z"/><path d="M25.93555,21.9375a.75019.75019,0,0,0-.75.75v2.80566a.75.75,0,0,0,1.5,0V22.6875A.7502.7502,0,0,0,25.93555,21.9375Z"/><path d="M23.68066,21.9375a.7502.7502,0,0,0-.75.75v2.80566a.75.75,0,0,0,1.5,0V22.6875A.75019.75019,0,0,0,23.68066,21.9375Z"/><path d="M21.42578,21.9375a.7502.7502,0,0,0-.75.75v2.80566a.75.75,0,0,0,1.5,0V22.6875A.7502.7502,0,0,0,21.42578,21.9375Z"/></g><text x="0" y="50" fill="#000000" font-size="5px" font-weight="bold" font-family="'Helvetica Neue', Helvetica, Arial-Unicode, Arial, Sans-serif">Created by Jesus Jezzini De Anda</text><text x="0" y="55" fill="#000000" font-size="5px" font-weight="bold" font-family="'Helvetica Neue', Helvetica, Arial-Unicode, Arial, Sans-serif">from the Noun Project</text></svg>